<?xml version="1.0" encoding="UTF-8"?>
<svg version="1.1" xmlns="http://www.w3.org/2000/svg" width="250" height="56">
<path d="M0 0 C82.5 0 165 0 250 0 C250 18.48 250 36.96 250 56 C167.5 56 85 56 0 56 C0 37.52 0 19.04 0 0 Z " fill="#000102" transform="translate(0,0)"/>
<path d="M0 0 C1.84271484 0.00193359 1.84271484 0.00193359 3.72265625 0.00390625 C6.9375 0.4375 6.9375 0.4375 8.83984375 1.50390625 C10.57668832 4.5634723 10.4101239 7.32889095 10.4375 10.8125 C10.4684375 12.11960937 10.499375 13.42671875 10.53125 14.7734375 C9.9375 18.4375 9.9375 18.4375 7.8203125 21.3828125 C4.35332026 23.85386659 2.5301165 24.05384804 -1.6875 23.9375 C-2.81414063 23.9271875 -3.94078125 23.916875 -5.1015625 23.90625 C-8.0625 23.4375 -8.0625 23.4375 -9.93359375 22.40234375 C-11.73856662 19.26081658 -11.53468209 16.02180827 -11.5 12.5 C-11.5299707 11.42588867 -11.5299707 11.42588867 -11.56054688 10.33007812 C-11.5574484 6.9868248 -11.29287891 4.79725426 -9.4765625 1.9609375 C-6.19750429 -0.10837108 -3.85413738 -0.06079081 0 0 Z " fill="#724AE0" transform="translate(35.0625,14.5625)"/>
<path d="M0 0 C2.05078125 0.03255208 4.1015625 0.06510417 6.15234375 0.09765625 C6.44109375 0.73703125 6.72984375 1.37640625 7.02734375 2.03515625 C7.98057826 4.24971704 7.98057826 4.24971704 10.15234375 5.09765625 C10.27609375 4.45828125 10.39984375 3.81890625 10.52734375 3.16015625 C10.73359375 2.47953125 10.93984375 1.79890625 11.15234375 1.09765625 C14.10898894 -0.38066635 16.89464112 0.03732842 20.15234375 0.09765625 C20.18121887 3.74347312 20.1990996 7.38926088 20.21484375 11.03515625 C20.22322266 12.07607422 20.23160156 13.11699219 20.24023438 14.18945312 C20.24506836 15.67348633 20.24506836 15.67348633 20.25 17.1875 C20.25785522 18.56216431 20.25785522 18.56216431 20.26586914 19.96459961 C20.15234375 22.09765625 20.15234375 22.09765625 19.15234375 23.09765625 C16.81936942 23.13858562 14.4852915 23.14007348 12.15234375 23.09765625 C12.15234375 20.12765625 12.15234375 17.15765625 12.15234375 14.09765625 C9.84234375 14.42765625 7.53234375 14.75765625 5.15234375 15.09765625 C5.17296875 16.23203125 5.19359375 17.36640625 5.21484375 18.53515625 C5.15234375 22.09765625 5.15234375 22.09765625 4.15234375 23.09765625 C1.81936942 23.13858562 -0.5147085 23.14007348 -2.84765625 23.09765625 C-2.87653137 19.45183938 -2.8944121 15.80605162 -2.91015625 12.16015625 C-2.91853516 11.11923828 -2.92691406 10.07832031 -2.93554688 9.00585938 C-2.94038086 7.52182617 -2.94038086 7.52182617 -2.9453125 6.0078125 C-2.95054932 5.09136963 -2.95578613 4.17492676 -2.96118164 3.23071289 C-2.8178913 0.53839524 -2.70088781 0.14275306 0 0 Z " fill="#744EE7" transform="translate(180.84765625,14.90234375)"/>
<path d="M0 0 C3.625 0.3125 3.625 0.3125 5.5625 2.3125 C5.913125 2.9725 6.26375 3.6325 6.625 4.3125 C7.285 2.9925 7.945 1.6725 8.625 0.3125 C11.265 0.3125 13.905 0.3125 16.625 0.3125 C16.625 7.5725 16.625 14.8325 16.625 22.3125 C13.66835481 23.7908226 10.88270263 23.37282783 7.625 23.3125 C7.1609375 21.6109375 7.1609375 21.6109375 6.6875 19.875 C5.99575469 16.52474901 5.99575469 16.52474901 4.625 15.3125 C4.4084375 17.0140625 4.4084375 17.0140625 4.1875 18.75 C3.625 22.3125 3.625 22.3125 2.625 23.3125 C0.29202567 23.35342937 -2.04205225 23.35491723 -4.375 23.3125 C-4.40387512 19.66668313 -4.42175585 16.02089537 -4.4375 12.375 C-4.44587891 11.33408203 -4.45425781 10.29316406 -4.46289062 9.22070312 C-4.46772461 7.73666992 -4.46772461 7.73666992 -4.47265625 6.22265625 C-4.47789307 5.30621338 -4.48312988 4.38977051 -4.48852539 3.44555664 C-4.30018918 -0.09313894 -3.65832093 0.33873342 0 0 Z " fill="#734BE1" transform="translate(93.375,14.6875)"/>
<path d="M0 0 C1.1127832 -0.01836914 1.1127832 -0.01836914 2.24804688 -0.03710938 C4.18763629 -0.04238478 6.1267371 0.06561098 8.0625 0.1875 C11.06777647 3.19277647 10.0625 6.07620455 10.0625 10.1875 C10.7225 10.8475 11.3825 11.5075 12.0625 12.1875 C12.2578125 14.5703125 12.2578125 14.5703125 12.1875 17.3125 C12.16042969 18.67761719 12.16042969 18.67761719 12.1328125 20.0703125 C12.10960938 20.76898438 12.08640625 21.46765625 12.0625 22.1875 C9.10585481 23.6658226 6.32020263 23.24782783 3.0625 23.1875 C3.0625 20.8775 3.0625 18.5675 3.0625 16.1875 C2.0725 16.1875 1.0825 16.1875 0.0625 16.1875 C0.0625 18.1675 0.0625 20.1475 0.0625 22.1875 C-2.89414519 23.6658226 -5.67979737 23.24782783 -8.9375 23.1875 C-8.96637512 19.54168313 -8.98425585 15.89589537 -9 12.25 C-9.00837891 11.20908203 -9.01675781 10.16816406 -9.02539062 9.09570312 C-9.03022461 7.61166992 -9.03022461 7.61166992 -9.03515625 6.09765625 C-9.04039307 5.18121338 -9.04562988 4.26477051 -9.05102539 3.32055664 C-8.78968604 -1.58981308 -3.81360538 0.00329612 0 0 Z " fill="#734BE1" transform="translate(55.9375,14.8125)"/>
<path d="M0 0 C1.50433594 0.01353516 1.50433594 0.01353516 3.0390625 0.02734375 C3.80992187 0.03894531 4.58078125 0.05054688 5.375 0.0625 C9.60050835 7.36282023 9.83751848 13.75001509 9.375 22.0625 C6.41835481 23.5408226 3.63270263 23.12282783 0.375 23.0625 C0.375 21.4125 0.375 19.7625 0.375 18.0625 C-0.615 18.0625 -1.605 18.0625 -2.625 18.0625 C-2.625 19.3825 -2.625 20.7025 -2.625 22.0625 C-5.58164519 23.5408226 -8.36729737 23.12282783 -11.625 23.0625 C-12.12363689 15.00120354 -11.7242342 8.19875808 -7.625 1.0625 C-4.98041621 -0.25979189 -2.94738699 -0.03427194 0 0 Z " fill="#714ADD" transform="translate(214.625,14.9375)"/>
<path d="M0 0 C1.58206057 0.00667536 3.16410534 0.0186375 4.74609375 0.03515625 C5.55240234 0.03966797 6.35871094 0.04417969 7.18945312 0.04882812 C9.18753131 0.06065107 11.18557158 0.07858711 13.18359375 0.09765625 C13.27734375 2.5078125 13.27734375 2.5078125 13.18359375 5.09765625 C12.68859375 5.57203125 12.19359375 6.04640625 11.68359375 6.53515625 C9.83624856 8.12118443 9.83624856 8.12118443 9.99609375 11.28515625 C10.05796875 12.21328125 10.11984375 13.14140625 10.18359375 14.09765625 C9.19359375 14.59265625 9.19359375 14.59265625 8.18359375 15.09765625 C9.83359375 15.42765625 11.48359375 15.75765625 13.18359375 16.09765625 C13.18359375 18.07765625 13.18359375 20.05765625 13.18359375 22.09765625 C9.99534807 23.69177909 6.55462713 23.1994036 3.05859375 23.16015625 C2.30449219 23.15564453 1.55039063 23.15113281 0.7734375 23.14648438 C-1.08987752 23.13469124 -2.9531518 23.11675567 -4.81640625 23.09765625 C-4.84528137 19.45183938 -4.8631621 15.80605162 -4.87890625 12.16015625 C-4.88728516 11.11923828 -4.89566406 10.07832031 -4.90429688 9.00585938 C-4.90913086 7.52182617 -4.90913086 7.52182617 -4.9140625 6.0078125 C-4.91929932 5.09136963 -4.92453613 4.17492676 -4.92993164 3.23071289 C-4.72990708 -0.52759796 -3.95096947 0.10109953 0 0 Z " fill="#734CE3" transform="translate(155.81640625,14.90234375)"/>
<path d="M0 0 C1.24652344 -0.01417969 2.49304688 -0.02835938 3.77734375 -0.04296875 C7.0625 0.1875 7.0625 0.1875 10.0625 2.1875 C10.4609375 4.68359375 10.4609375 4.68359375 10.4375 7.625 C10.44523437 8.59308594 10.45296875 9.56117187 10.4609375 10.55859375 C10.0625 13.1875 10.0625 13.1875 8.76953125 14.9921875 C6.08685401 16.87067545 3.26005985 16.88584341 0.0625 17.1875 C0.0625 18.8375 0.0625 20.4875 0.0625 22.1875 C-1.9375 23.1875 -1.9375 23.1875 -8.9375 23.1875 C-8.9375 15.9275 -8.9375 8.6675 -8.9375 1.1875 C-5.98162889 -0.29043555 -3.28752355 0.01696349 0 0 Z " fill="#7646DF" transform="translate(234.9375,14.8125)"/>
<path d="M0 0 C1.39456452 0.00667256 2.78911118 0.01863093 4.18359375 0.03515625 C4.89451172 0.03966797 5.60542969 0.04417969 6.33789062 0.04882812 C8.09899388 0.06064761 9.86005411 0.07858362 11.62109375 0.09765625 C11.62109375 2.07765625 11.62109375 4.05765625 11.62109375 6.09765625 C10.30109375 6.42765625 8.98109375 6.75765625 7.62109375 7.09765625 C7.62109375 10.06765625 7.62109375 13.03765625 7.62109375 16.09765625 C8.94109375 16.09765625 10.26109375 16.09765625 11.62109375 16.09765625 C11.66363731 18.09720371 11.66190158 20.09807261 11.62109375 22.09765625 C10.62109375 23.09765625 10.62109375 23.09765625 7.2421875 23.1953125 C5.84762298 23.18863994 4.45307632 23.17668157 3.05859375 23.16015625 C2.34767578 23.15564453 1.63675781 23.15113281 0.90429688 23.14648438 C-0.85680638 23.13466489 -2.61786661 23.11672888 -4.37890625 23.09765625 C-4.37890625 21.11765625 -4.37890625 19.13765625 -4.37890625 17.09765625 C-3.05890625 16.76765625 -1.73890625 16.43765625 -0.37890625 16.09765625 C-0.37890625 13.12765625 -0.37890625 10.15765625 -0.37890625 7.09765625 C-1.69890625 7.09765625 -3.01890625 7.09765625 -4.37890625 7.09765625 C-4.42144981 5.09810879 -4.41971408 3.09723989 -4.37890625 1.09765625 C-3.37890625 0.09765625 -3.37890625 0.09765625 0 0 Z " fill="#7849E6" transform="translate(116.37890625,14.90234375)"/>
<path d="M0 0 C1.48831242 0.00667405 2.97660807 0.01863442 4.46484375 0.03515625 C5.22345703 0.03966797 5.98207031 0.04417969 6.76367188 0.04882812 C8.64326246 0.06064945 10.52281274 0.07858547 12.40234375 0.09765625 C12.40234375 2.07765625 12.40234375 4.05765625 12.40234375 6.09765625 C9.44569856 7.57597885 6.66004638 7.15798408 3.40234375 7.09765625 C3.40234375 7.75765625 3.40234375 8.41765625 3.40234375 9.09765625 C5.71234375 9.09765625 8.02234375 9.09765625 10.40234375 9.09765625 C10.40234375 11.07765625 10.40234375 13.05765625 10.40234375 15.09765625 C8.09234375 15.42765625 5.78234375 15.75765625 3.40234375 16.09765625 C3.42296875 17.06703125 3.44359375 18.03640625 3.46484375 19.03515625 C3.40234375 22.09765625 3.40234375 22.09765625 2.40234375 23.09765625 C0.06936942 23.13858562 -2.2647085 23.14007348 -4.59765625 23.09765625 C-4.62653137 19.45183938 -4.6444121 15.80605162 -4.66015625 12.16015625 C-4.66853516 11.11923828 -4.67691406 10.07832031 -4.68554688 9.00585938 C-4.69038086 7.52182617 -4.69038086 7.52182617 -4.6953125 6.0078125 C-4.70054932 5.09136963 -4.70578613 4.17492676 -4.71118164 3.23071289 C-4.51624959 -0.43191354 -3.81936855 0.1036745 0 0 Z " fill="#724CE3" transform="translate(10.59765625,14.90234375)"/>
<path d="M0 0 C0.80566406 0.00322266 1.61132812 0.00644531 2.44140625 0.00976562 C3.70404297 0.02233398 3.70404297 0.02233398 4.9921875 0.03515625 C5.84167969 0.03966797 6.69117188 0.04417969 7.56640625 0.04882812 C9.66669659 0.06062751 11.7669508 0.07856319 13.8671875 0.09765625 C13.8671875 2.07765625 13.8671875 4.05765625 13.8671875 6.09765625 C12.2171875 6.42765625 10.5671875 6.75765625 8.8671875 7.09765625 C8.8671875 12.04765625 8.8671875 16.99765625 8.8671875 22.09765625 C6.8671875 23.09765625 6.8671875 23.09765625 -0.1328125 23.09765625 C-0.1328125 17.81765625 -0.1328125 12.53765625 -0.1328125 7.09765625 C-2.1128125 7.09765625 -4.0928125 7.09765625 -6.1328125 7.09765625 C-6.1328125 5.11765625 -6.1328125 3.13765625 -6.1328125 1.09765625 C-3.8362755 -0.05061225 -2.54968083 -0.0179555 0 0 Z " fill="#754BE3" transform="translate(135.1328125,14.90234375)"/>
<path d="M0 0 C1.18613892 0.00785522 1.18613892 0.00785522 2.39624023 0.01586914 C3.67724609 0.02070313 3.67724609 0.02070313 4.98413086 0.02563477 C5.88196289 0.03401367 6.77979492 0.04239258 7.70483398 0.05102539 C8.6065332 0.05553711 9.50823242 0.06004883 10.43725586 0.06469727 C12.67234712 0.07652315 14.90730835 0.09300319 17.14233398 0.11352539 C17.14233398 2.09352539 17.14233398 4.07352539 17.14233398 6.11352539 C15.16233398 6.44352539 13.18233398 6.77352539 11.14233398 7.11352539 C11.14233398 12.06352539 11.14233398 17.01352539 11.14233398 22.11352539 C9.14233398 23.11352539 9.14233398 23.11352539 2.14233398 23.11352539 C2.14233398 17.83352539 2.14233398 12.55352539 2.14233398 7.11352539 C0.49233398 7.11352539 -1.15766602 7.11352539 -2.85766602 7.11352539 C-2.90020958 5.11397793 -2.89847384 3.11310903 -2.85766602 1.11352539 C-1.85766602 0.11352539 -1.85766602 0.11352539 0 0 Z " fill="#744CE3" transform="translate(70.857666015625,14.886474609375)"/>
<path d="M0 0 C1.98 0 3.96 0 6 0 C6 2.97 6 5.94 6 9 C5.01 9.33 4.02 9.66 3 10 C2.67 11.98 2.34 13.96 2 16 C1.67 16 1.34 16 1 16 C0.14701624 12.32612505 -0.10789471 8.9552607 -0.0625 5.1875 C-0.05347656 4.21167969 -0.04445313 3.23585938 -0.03515625 2.23046875 C-0.02355469 1.49441406 -0.01195313 0.75835938 0 0 Z " fill="#100010" transform="translate(110,22)"/>
<path d="M0 0 C0.99 0 1.98 0 3 0 C3 2.97 3 5.94 3 9 C2.01 9 1.02 9 0 9 C0 6.03 0 3.06 0 0 Z " fill="#000000" transform="translate(33,22)"/>
</svg>
